<?xml version="1.0" encoding="UTF-8" standalone="no"?>
<!-- Created with Inkscape (http://www.inkscape.org/) -->

<svg
   width="4.0472617mm"
   height="4.1428432mm"
   viewBox="0 0 4.0472617 4.1428432"
   version="1.1"
   id="svg1"
   xmlns="http://www.w3.org/2000/svg"
   xmlns:svg="http://www.w3.org/2000/svg">
  <defs
     id="defs1" />
  <g
     id="layer1"
     transform="translate(-51.75966,-93.015149)">
    <path
       style="fill:#ff0000;stroke-width:0.020124"
       d="m 52.629401,94.54504 c -1.573658,0.148998 -0.553055,2.165001 -0.443567,2.215367 0.974867,0.448449 1.525568,0.508369 2.068476,0.225967 0.08044,-0.04184 1.559891,-3.139455 1.552585,-3.290399 -0.0073,-0.150943 -0.807251,0.469465 -0.872001,0.469465 -0.06475,0 -1.145357,1.660859 -1.145357,1.660859 0,0 -1.793211,0.45894 -0.63511,-0.449772 0.25578,-0.2007 0.949535,-1.136581 0.923818,-1.25266 -0.02572,-0.116078 -0.939717,0.292737 -0.939717,0.292737 0,0 -0.530625,-1.471988 -0.625499,-1.398816 -0.09487,0.07317 0.116372,1.527252 0.116372,1.527252 z"
       id="path2" />
  </g>
</svg>
