<?xml version="1.0" encoding="UTF-8" standalone="no"?>
<!--Generator: Xara Designer (www.xara.com), SVG filter version: 6.6.0.1-->

<svg
   fill="none"
   fill-rule="evenodd"
   stroke="#000000"
   stroke-width="0.501"
   stroke-linejoin="bevel"
   stroke-miterlimit="10"
   font-family="'Times New Roman'"
   font-size="16px"
   style="font-variant-ligatures:none"
   version="1.1"
   overflow="visible"
   width="200pt"
   height="200pt"
   viewBox="21.215 -742.5 200 200"
   id="svg2"
   xmlns="http://www.w3.org/2000/svg"
   xmlns:svg="http://www.w3.org/2000/svg">
  <defs
     id="defs1" />
  <ellipse
     style="fill:none;stroke:#000000;stroke-width:1;stroke-dasharray:none;stroke-opacity:1"
     id="path10"
     cx="121.215"
     cy="-642.5"
     rx="99.742172"
     ry="99.742165" />
  <path
     d="M 21.215,-539.216 H 219.202 V -742.5 H 21.215 Z"
     stroke-width="0.272"
     stroke="none"
     stroke-linejoin="miter"
     marker-start="none"
     marker-end="none"
     fill="none"
     id="Shape" />
  <g
     id="g11"
     transform="matrix(0.90491456,0,0,0.91511776,12.156129,-58.704556)"
     style="fill:#000000;fill-opacity:1">
    <path
       style="fill:#000000;fill-opacity:1;stroke-width:0.517;stroke-dasharray:none"
       d="m 70.890442,-681.1844 c -0.919545,0.23215 -2.75864,0.69643 -4.353282,1.43938 -1.594642,0.74294 -2.944783,1.76451 -4.16144,3.58442 -1.216658,1.81992 -2.299768,4.43807 -2.961475,7.62418 -0.661708,3.1861 -0.901983,6.93997 0.191442,13.00449 1.093424,6.06452 3.520453,14.43928 6.90249,23.24005 3.382037,8.80076 7.718857,18.02699 10.596072,24.77869 2.877215,6.75169 4.294679,11.02849 5.05013,15.16946 0.755452,4.14098 0.848862,8.14589 0.372848,11.54366 -0.476013,3.39777 -1.52141,6.18821 -3.950204,9.129 -2.428795,2.9408 -6.240818,6.03178 -10.316828,7.66726 -4.076009,1.63547 -8.415762,1.81539 -12.850412,0.67375 -4.43465,-1.14164 -8.963925,-3.60474 -13.064787,-7.34251 -4.100862,-3.73778 -7.77307,-8.74999 -9.948909,-14.21729 -2.175839,-5.46731 -2.855216,-11.3894 -2.588975,-16.40025 0.266242,-5.01085 1.478065,-9.11018 3.239492,-12.2851 1.761427,-3.17492 4.072339,-5.42525 6.74152,-7.08071 2.66918,-1.65545 5.696465,-2.71596 8.757712,-2.81824 3.061247,-0.10229 6.156265,0.75363 8.159992,1.5923 2.003727,0.83868 2.916062,1.66006 3.391393,2.00439 0.475332,0.34433 0.513641,0.21159 0.086,-0.27484 -0.427643,-0.48643 -1.321199,-1.32651 -3.306355,-2.19034 -1.985156,-0.86384 -5.061767,-1.75137 -8.214905,-1.66783 -3.153139,0.0835 -6.382608,1.13812 -9.177241,2.85587 -2.794632,1.71775 -5.154273,4.09856 -6.954944,7.31802 -1.80067,3.21946 -3.042275,7.27736 -3.354569,12.24636 -0.312294,4.96899 0.304725,10.84875 2.532029,16.42516 2.227304,5.57641 6.064727,10.84914 10.263503,14.73999 4.198775,3.89085 8.75865,6.39963 13.248429,7.55395 4.489778,1.15432 8.909194,0.95415 13.08849,-0.70918 4.179296,-1.66333 8.118228,-4.7897 10.904547,-7.71856 2.786319,-2.92885 4.419882,-5.66002 5.526457,-8.69884 1.106575,-3.03882 1.686103,-6.38509 1.948709,-9.50015 0.262605,-3.11505 0.208277,-5.99871 -0.312832,-9.19603 -0.521108,-3.19732 -1.508953,-6.7081 -3.291435,-10.65136 -1.782482,-3.94326 -4.35948,-8.31876 -7.072588,-12.5978 -2.713109,-4.27904 -5.562162,-8.46136 -7.43545,-11.13842 -1.873288,-2.67706 -2.770715,-3.84872 -4.175967,-7.76514 -1.405251,-3.91642 -3.318229,-10.5773 -4.159302,-15.71542 -0.841072,-5.13812 -0.610209,-8.7532 0.01309,-11.81236 0.623299,-3.05916 1.638982,-5.56221 2.767492,-7.31553 1.12851,-1.75332 2.369779,-2.75682 3.848395,-3.48857 1.478617,-0.73176 3.194494,-1.19174 4.057585,-1.51946 0.86309,-0.32771 0.87336,-0.52315 0.878495,-0.62087 0.0051,-0.0977 0.0051,-0.0977 -0.914409,0.13442 z"
       id="path6" />
    <path
       style="fill:#000000;fill-opacity:1;stroke-width:0.517;stroke-dasharray:none"
       d="m 62.136652,-630.57431 c 1.071632,1.13185 3.214898,3.39555 4.948201,4.59502 1.733302,1.19948 3.056584,1.33471 4.415746,0.99027 1.359162,-0.34444 2.754129,-1.16853 3.863125,-2.7041 1.108995,-1.53557 1.931966,-3.78253 2.188895,-6.09477 0.256929,-2.31224 -0.05219,-4.68962 -0.627229,-7.12062 -0.575037,-2.43099 -1.415956,-4.91546 -2.805373,-7.31213 -1.389416,-2.39666 -3.327246,-4.7054 -5.373199,-6.295 -2.045954,-1.58961 -4.199911,-2.46002 -6.024645,-2.91606 -1.824734,-0.45605 -3.320141,-0.49771 -5.217602,0.22567 -1.897461,0.72339 -4.19686,2.21178 -6.49761,4.97448 -2.300751,2.76271 -4.602721,6.79955 -6.177076,11.17312 -1.574355,4.37358 -2.421015,9.08362 -2.833618,13.5638 -0.412603,4.48018 -0.391133,8.73024 0.505784,14.23863 0.896917,5.50839 2.669213,12.27477 5.262527,18.95032 2.593314,6.67555 6.007475,13.25988 9.097356,18.1435 3.089882,4.88361 5.855301,8.06624 9.001926,11.01984 3.146626,2.9536 6.674259,5.67799 10.840051,7.88879 4.165793,2.2108 8.969482,3.90788 13.047975,4.58853 4.078493,0.68065 7.431565,0.34484 10.845884,-0.9991 3.41431,-1.34394 6.88966,-3.69592 9.61188,-6.54191 2.72222,-2.84599 4.69115,-6.18582 6.18398,-10.00106 1.49282,-3.81524 2.50947,-8.10567 2.8158,-12.06198 0.30633,-3.95631 -0.0977,-7.57827 -1.32795,-11.90928 -1.2303,-4.331 -3.28679,-9.37069 -5.30437,-13.19218 -2.01759,-3.82149 -3.99608,-6.42444 -7.5489,-9.64403 -3.55282,-3.2196 -8.679826,-7.05573 -13.562347,-8.44236 -4.882521,-1.38662 -9.520159,-0.32363 -13.586022,2.39437 -4.065863,2.71799 -7.559641,7.09069 -8.374674,12.78179 -0.815034,5.69109 1.048816,12.70002 3.460659,18.02266 2.411843,5.32265 5.37152,8.95871 8.291155,11.64618 2.919635,2.68747 5.799061,4.4262 9.275529,5.43174 3.476469,1.00555 7.549765,1.27787 9.55721,1.53411 2.00744,0.25624 1.94896,0.49639 -0.0811,0.4501 -2.030099,-0.0463 -6.031663,-0.37898 -9.518834,-1.40785 -3.487171,-1.02886 -6.459752,-2.75382 -9.502744,-5.51457 -3.042993,-2.76075 -6.156225,-6.55713 -8.647651,-11.88253 -2.491425,-5.3254 -4.360876,-12.17934 -3.537357,-17.94164 0.823519,-5.76229 4.339985,-10.43234 8.460934,-13.39301 4.12095,-2.96067 8.84613,-4.21183 14.567852,-2.56399 5.721722,1.64784 12.4399,6.19471 17.19528,12.06044 4.75537,5.86573 7.54797,13.05035 9.12842,18.4253 1.58046,5.37495 1.94877,8.94012 1.65027,12.94543 -0.2985,4.00532 -1.26378,8.45052 -2.81248,12.35309 -1.54869,3.90257 -3.6807,7.26227 -6.50857,10.21739 -2.82787,2.95512 -6.35141,5.5055 -10.00675,6.9896 -3.655344,1.4841 -7.44226,1.90187 -11.92068,1.53295 -4.47842,-0.36892 -9.648065,-1.5245 -13.9095,-3.35318 -4.261435,-1.82867 -7.614425,-4.33032 -11.238008,-7.90906 -3.623584,-3.57874 -7.517527,-8.23431 -10.781797,-13.26717 -3.264269,-5.03286 -5.898673,-10.44268 -7.816124,-15.41366 -1.917451,-4.97098 -3.11785,-9.50284 -3.879101,-13.78346 -0.761252,-4.28063 -1.083321,-8.30979 -1.059718,-12.59149 0.0236,-4.28169 0.392872,-8.81566 1.019825,-12.81686 0.626952,-4.0012 1.511549,-7.46942 3.146256,-11.28406 1.634707,-3.81464 4.01941,-7.97546 6.365258,-10.84011 2.345847,-2.86465 4.652704,-4.433 6.793851,-5.47519 2.141146,-1.04219 4.116465,-1.55819 6.306459,-1.576 2.189994,-0.0178 4.594528,0.46256 6.700882,1.59199 2.106354,1.12942 3.914407,2.90781 5.508519,5.11411 1.594113,2.2063 2.974199,4.84036 3.699224,7.64641 0.725026,2.80604 0.794959,5.78389 0.477377,8.49482 -0.317582,2.71092 -1.022652,5.15475 -1.749235,6.838 -0.726584,1.68326 -1.474629,2.60583 -2.516755,3.47694 -1.042126,0.87111 -2.378262,1.69072 -3.799713,2.06557 -1.42145,0.37485 -2.928133,0.30494 -4.776473,-0.8609 -1.848341,-1.16584 -4.03822,-3.42752 -5.092234,-4.67476 -1.054013,-1.24725 -0.972129,-1.47999 -0.931186,-1.59636 0.04094,-0.11638 0.04094,-0.11638 1.112575,1.01547 z"
       id="path7" />
    <path
       style="fill:#000000;fill-opacity:1;stroke-width:0.517;stroke-dasharray:none"
       d="m 194.53716,-603.00124 c 0.44785,-1.11263 1.34354,-3.3379 2.86074,-4.52547 1.51719,-1.18758 3.6558,-1.33745 6.17268,-0.24879 2.51688,1.08865 5.41187,3.41574 7.14174,6.6386 1.72988,3.22285 2.29457,7.34125 1.8216,11.13425 -0.47297,3.793 -1.98354,7.26037 -4.26088,9.84026 -2.27735,2.57989 -5.3213,4.27215 -8.88007,4.57901 -3.55876,0.30686 -7.6321,-0.77168 -11.50555,-3.50645 -3.87344,-2.73476 -7.54676,-7.12554 -10.25545,-11.18504 -2.7087,-4.0595 -4.45265,-7.78749 -5.90543,-11.65098 -1.45277,-3.8635 -2.61431,-7.86227 -3.74451,-13.04515 -1.13021,-5.18288 -2.22901,-11.54953 -2.81958,-17.53634 -0.59057,-5.98681 -0.6729,-11.59344 -0.53152,-15.56478 0.14138,-3.97135 0.50645,-6.30721 0.86074,-8.30858 0.3543,-2.00136 0.69781,-3.66812 1.08702,-4.93398 0.38921,-1.26587 0.82411,-2.13078 1.11617,-2.9722 0.29205,-0.84143 0.44125,-1.65933 0.27595,-2.25429 -0.1653,-0.59496 -0.64509,-0.96698 -1.46433,-0.86086 -0.81923,0.10612 -1.97786,0.69035 -3.20489,2.03484 -1.22702,1.3445 -2.52237,3.44916 -3.86752,6.30814 -1.34515,2.85897 -2.74001,6.47206 -3.62512,10.01954 -0.8851,3.54749 -1.2604,7.02915 -1.61963,13.03155 -0.35924,6.0024 -0.70239,14.52512 -1.27016,24.32936 -0.56778,9.80425 -1.36013,20.88939 -2.20798,28.03761 -0.84786,7.14821 -1.75116,10.35916 -2.84089,13.01508 -1.08974,2.65592 -2.36583,4.75668 -3.87863,6.68659 -1.5128,1.9299 -3.2622,3.68883 -5.08814,5.21181 -1.82594,1.52297 -3.7283,2.80989 -5.89939,3.73459 -2.17109,0.9247 -4.61078,1.48714 -7.19759,1.72626 -2.5868,0.23912 -5.32056,0.15493 -7.5536,-0.62313 -2.23304,-0.77807 -3.96523,-2.24993 -5.74008,-3.51239 -1.77486,-1.26247 -3.59225,-2.31545 -5.4505,-4.09535 -1.85826,-1.77989 -3.75725,-4.28656 -5.46977,-7.33949 -1.712521,-3.05292 -3.238469,-6.65189 -3.797218,-10.39098 -0.558749,-3.73908 -0.150281,-7.61806 0.662335,-11.0721 0.812617,-3.45404 2.029323,-6.48294 3.335533,-8.94875 1.30621,-2.46581 2.70186,-4.36839 3.92839,-5.84204 1.22653,-1.47365 2.28387,-2.5183 3.66676,-3.66952 1.3829,-1.15123 3.09124,-2.40896 4.7156,-3.61397 1.62436,-1.20502 3.16464,-2.35724 5.54364,-3.22201 2.379,-0.86477 5.59655,-1.44204 8.58772,-1.7406 2.99118,-0.29855 5.7558,-0.31839 8.30165,-0.0403 2.54586,0.27805 4.87281,0.85395 6.63737,1.42339 1.76457,0.56945 2.96666,1.1324 4.77912,1.97011 1.81246,0.83771 4.23515,1.95012 6.58766,3.44247 2.35251,1.49235 4.6347,3.36452 6.26,5.00595 1.62531,1.64142 2.59363,3.05198 3.69384,4.26253 1.10021,1.21055 2.33224,2.221 3.17255,3.19082 0.84032,0.96982 1.28888,1.89893 1.4733,2.00311 0.18442,0.10418 0.10468,-0.61656 -1.1242,-2.36855 -1.22888,-1.75199 -3.6068,-4.53509 -6.15338,-6.94134 -2.54658,-2.40626 -5.26166,-4.43554 -7.68766,-5.97717 -2.42601,-1.54162 -4.56281,-2.59552 -7.28826,-3.64122 -2.72545,-1.0457 -6.03937,-2.08315 -8.81138,-2.62708 -2.772,-0.54393 -5.00194,-0.59433 -8.18317,-0.29072 -3.18124,0.3036 -7.31357,0.96119 -10.36365,1.94963 -3.05008,0.98844 -5.01777,2.30766 -6.81417,3.64357 -1.7964,1.33591 -3.42142,2.68842 -5.26799,4.66284 -1.84657,1.97443 -3.91458,4.57063 -5.58862,7.45161 -1.67405,2.88098 -2.954044,6.04656 -3.794363,9.52327 -0.84032,3.47671 -1.240922,7.26434 -0.875656,10.715 0.365265,3.45065 1.496358,6.56412 2.788103,9.2594 1.291746,2.69528 2.744066,4.97222 4.591876,7.132 1.84781,2.15978 4.091,4.20229 6.32829,5.99169 2.2373,1.7894 4.46858,3.32558 7.32195,4.13014 2.85338,0.80456 6.32868,0.87746 9.02841,0.64668 2.69974,-0.23077 4.62376,-0.76522 6.85773,-1.92121 2.23397,-1.15599 4.77774,-2.93345 6.95553,-4.95612 2.17778,-2.02267 3.98945,-4.29045 5.45839,-6.8745 1.46894,-2.58405 2.59507,-5.48423 3.43364,-8.54261 0.83857,-3.05838 1.38955,-6.27476 1.7756,-10.08301 0.38605,-3.80825 0.60716,-8.20813 1.14556,-17.5423 0.5384,-9.33417 1.39405,-23.60199 1.92342,-31.58966 0.52937,-7.98767 0.73243,-9.69482 0.90493,-11.06051 0.1725,-1.36569 0.31443,-2.38985 0.64173,-3.75036 0.3273,-1.36051 0.83993,-3.0573 1.85516,-5.39354 1.01523,-2.33623 2.53297,-5.31176 3.8167,-7.39391 1.28373,-2.08215 2.33338,-3.27081 3.01368,-3.91614 0.68029,-0.64533 0.9912,-0.7473 1.24071,-0.57933 0.2495,0.16797 0.4376,0.60587 0.33816,1.26193 -0.0994,0.65605 -0.4864,1.53022 -1.15076,4.18885 -0.66437,2.65862 -1.6061,7.10149 -2.39125,12.32426 -0.78516,5.22276 -1.41369,11.22509 -1.20521,18.25224 0.20848,7.02716 1.25394,15.0787 2.96739,21.69429 1.71344,6.61559 4.09474,11.79487 6.22453,15.56118 2.12979,3.7663 4.00794,6.11945 6.7843,8.6529 2.77635,2.53346 6.45072,5.24707 10.15241,7.12825 3.70168,1.88119 7.43045,2.92987 11.0597,2.55044 3.62925,-0.37944 7.15877,-2.18694 9.72221,-4.86152 2.56345,-2.67459 4.16071,-6.2161 4.67611,-10.09769 0.51541,-3.88159 -0.051,-8.10304 -1.81922,-11.45558 -1.76818,-3.35253 -4.73795,-5.83597 -7.47184,-7.08207 -2.73388,-1.24611 -5.2317,-1.25485 -7.01799,0.007 -1.78628,1.26192 -2.86094,3.79439 -3.2505,5.07435 -0.38956,1.27997 -0.094,1.30737 0.0538,1.32107 0.14777,0.0137 0.14777,0.0138 0.59561,-1.09882 z"
       id="path8" />
    <path
       style="fill:#000000;fill-opacity:1;stroke-width:0.517;stroke-dasharray:none"
       d="m 174.32237,-615.68808 c 0.0904,1.86302 0.27122,5.58907 0.19718,8.84286 -0.074,3.25379 -0.40295,6.03523 -0.97845,8.40167 -0.5755,2.36643 -1.39756,4.31774 -2.4304,6.01377 -1.03285,1.69602 -2.27643,3.13667 -4.47165,5.04425 -2.19522,1.90757 -5.34194,4.28196 -8.81806,5.65817 -3.47612,1.37622 -7.28143,1.75422 -10.0724,1.82397 -2.79097,0.0697 -4.56745,-0.16876 -6.70146,-0.61121 -2.13402,-0.44244 -4.62538,-1.08878 -6.88764,-2.6141 -2.26225,-1.52531 -4.29513,-3.92942 -6.09162,-6.33774 -1.79649,-2.40832 -3.35641,-4.82059 -4.39713,-7.34583 -1.04071,-2.52524 -1.56216,-5.16324 -1.20461,-7.59161 0.35756,-2.42837 1.59408,-4.64684 3.17947,-6.17534 1.58538,-1.52851 3.51943,-2.36686 5.65373,-2.73359 2.13429,-0.36672 4.46856,-0.26178 6.45145,0.22693 1.98289,0.48871 3.61418,1.36114 4.6336,2.29007 1.01943,0.92894 1.42693,1.91433 1.70114,2.98088 0.27421,1.06656 0.41512,2.21421 0.457,3.00092 0.0419,0.78672 -0.0153,1.21242 -0.0383,1.75004 -0.023,0.53761 -0.0119,1.18708 0.1578,1.21635 0.16974,0.0293 0.49809,-0.56166 0.58861,-1.45341 0.0905,-0.89176 -0.0568,-2.08428 -0.20329,-2.96635 -0.1465,-0.88207 -0.29219,-1.45361 -0.58744,-2.29547 -0.29525,-0.84186 -0.74004,-1.95397 -1.96551,-2.9326 -1.22547,-0.97863 -3.23151,-1.82373 -5.13185,-2.25059 -1.90033,-0.42687 -3.69477,-0.43547 -5.62934,-0.10925 -1.93456,0.32622 -4.00905,0.98722 -5.59123,2.19379 -1.58218,1.20656 -2.67189,2.95857 -3.40493,4.4316 -0.73304,1.47303 -1.10935,2.66697 -1.14766,4.27071 -0.0383,1.60374 0.2614,3.61715 0.96072,5.68578 0.69932,2.06862 1.7982,4.19232 2.93191,6.03147 1.13371,1.83916 2.30217,3.39363 3.50367,4.82461 1.20151,1.43098 2.43593,2.73833 4.22375,3.98449 1.78781,1.24616 4.12885,2.43103 6.15391,3.21235 2.02506,0.78132 3.73402,1.15906 5.24397,1.32333 1.50996,0.16426 2.82081,0.11504 4.61675,-0.15594 1.79594,-0.27098 4.07682,-0.76369 5.67077,-1.09915 1.59395,-0.33546 2.5009,-0.51364 4.12084,-1.3042 1.61994,-0.79056 3.95276,-2.19343 5.87006,-3.65032 1.91729,-1.45689 3.41896,-2.96771 4.85478,-4.96791 1.43582,-2.0002 2.80572,-4.48966 3.72821,-6.48424 0.9225,-1.99458 1.39754,-3.49417 1.6853,-5.34329 0.28776,-1.84912 0.38822,-4.04765 0.34742,-6.81932 -0.0408,-2.77167 -0.22286,-6.1163 -0.45798,-7.85009 -0.23513,-1.73379 -0.5233,-1.85665 -0.66738,-1.91809 -0.14409,-0.0614 -0.14413,-0.0614 -0.0537,1.80163 z"
       id="path9" />
  </g>
  <g
     id="g10"
     transform="matrix(0.94105326,0,0,0.96220611,7.720642,-19.530007)"
     style="fill:#000000;fill-opacity:1">
    <path
       style="fill:#000000;fill-opacity:1;stroke-width:0.517;stroke-dasharray:none"
       d="m 26.58875,-679.4035 c 0.856952,-0.10844 2.570858,-0.3253 4.395249,-0.55003 1.824392,-0.22472 3.759192,-0.45729 5.751098,-0.9034 1.991906,-0.44611 4.040799,-1.10573 7.756671,-2.2872 3.715872,-1.18146 9.09847,-2.88468 12.697514,-3.75784 3.599044,-0.87317 5.414353,-0.91624 7.681963,-1.41461 2.267611,-0.49836 4.987378,-1.45198 7.006749,-2.63075 2.019372,-1.17877 3.338242,-2.58262 4.161866,-3.48897 0.823623,-0.90635 1.151957,-1.31515 1.073692,-1.93662 -0.07827,-0.62147 -0.56311,-1.45557 -0.966295,-2.52145 -0.403186,-1.06588 -0.724688,-2.36347 -0.628497,-4.14885 0.09619,-1.78538 0.610059,-4.05843 1.785721,-6.15271 1.175663,-2.09429 3.01304,-4.0097 5.109849,-5.25777 2.09681,-1.24807 4.452924,-1.82875 6.521777,-1.84851 2.068854,-0.0198 3.850329,0.5214 5.163428,1.44144 1.3131,0.92003 2.157751,2.21887 2.79422,3.16628 0.636469,0.94741 1.064714,1.54333 1.13404,2.04883 0.06933,0.5055 -0.220266,0.92056 0.01277,1.53676 0.233034,0.6162 0.988679,1.43351 1.23838,2.02126 0.249701,0.58775 -0.0065,0.94592 -0.08668,1.25346 -0.08014,0.30754 0.01583,0.56444 0.192584,0.91347 0.176749,0.34904 0.43426,0.79018 0.486256,1.28372 0.052,0.49354 -0.101522,1.03945 -0.240112,1.41918 -0.13859,0.37972 -0.262248,0.59325 -0.201346,1.08467 0.0609,0.49141 0.30635,1.26067 0.236353,1.90859 -0.07,0.64792 -0.455432,1.17445 -0.961737,1.46291 -0.506304,0.28845 -1.133444,0.33882 -1.663937,0.64676 -0.530493,0.30794 -0.964312,0.87343 -1.13603,1.49666 -0.171719,0.62323 -0.08133,1.30417 0.193331,1.94878 0.274662,0.64461 0.733574,1.25286 1.764001,1.70694 1.030427,0.45409 2.632288,0.75398 3.692558,1.1327 1.06027,0.37872 1.5789,0.83624 1.89491,1.28415 0.31601,0.44792 0.42939,0.88621 1.06694,1.30599 0.63755,0.41977 1.79922,0.82101 2.89111,1.44121 1.0919,0.6202 2.11395,1.45932 2.62505,2.40628 0.51111,0.94697 0.51123,2.00172 0.37421,2.91781 -0.13703,0.91608 -0.4112,1.69345 -0.53107,2.55483 -0.11987,0.86137 -0.0854,1.80669 0.19274,3.29488 0.27817,1.4882 0.80005,3.51917 1.55306,4.86273 0.75301,1.34357 1.73712,1.99967 2.67997,2.71476 0.94286,0.71508 1.84442,1.4891 2.31346,2.0456 0.46903,0.5565 0.50553,0.89545 0.37751,1.07701 -0.12801,0.18157 -0.42055,0.20573 -0.48814,0.33682 -0.0676,0.13108 0.0897,0.36908 0.37261,0.67267 0.28288,0.30359 0.69128,0.67277 0.76254,1.16554 0.0713,0.49277 -0.1946,1.10911 -0.66658,1.47193 -0.47198,0.36282 -1.15003,0.47209 -1.93342,0.34534 -0.78339,-0.12675 -1.67207,-0.48952 -2.22947,-0.78583 -0.55741,-0.29631 -0.78352,-0.52615 -1.11058,-0.56473 -0.32706,-0.0386 -0.75506,0.11408 -0.70943,2.22732 0.0456,2.11324 0.56489,6.18687 1.2527,10.21415 0.68781,4.02728 1.54411,8.00796 1.91801,11.20096 0.37389,3.193 0.26535,5.59815 -0.58598,10.65813 -0.85132,5.05999 -2.44537,12.77445 -3.58805,18.00141 -1.14268,5.22696 -1.83392,7.96615 -2.03185,11.93238 -0.19793,3.96623 0.0975,9.15922 0.45387,14.37333 0.35642,5.21411 0.77384,10.44892 1.01947,14.65886 0.24562,4.20995 0.31943,7.39454 0.35767,10.08919 0.0382,2.69464 0.0409,4.89904 -0.35932,6.32863 -0.40021,1.42959 -1.20328,2.08432 -2.08269,2.13525 -0.87941,0.0509 -1.83511,-0.50192 -2.59121,-0.84889 -0.75611,-0.34697 -1.31259,-0.48804 -2.21804,-1.6305 -0.90544,-1.14246 -2.15981,-3.28623 -2.716933,-4.80146 -0.557123,-1.51522 -0.416977,-2.40183 -0.778548,-3.36227 -0.361571,-0.96043 -1.224823,-1.99464 -1.753923,-3.08842 -0.5291,-1.09378 -0.724017,-2.24706 -0.588252,-3.20862 0.135765,-0.96157 0.602191,-1.73137 0.370551,-3.92041 -0.231639,-2.18905 -1.16132,-5.79718 -2.567054,-9.20653 -1.405733,-3.40935 -3.287434,-6.61974 -4.414856,-9.47481 -1.127421,-2.85508 -1.500516,-5.35469 -1.321548,-8.00606 0.178967,-2.65137 0.909977,-5.45434 1.393555,-8.44821 0.483577,-2.99388 0.719701,-6.17849 0.596667,-8.34348 -0.123034,-2.16499 -0.605206,-3.31024 -1.554581,-7.83829 -0.949376,-4.52805 -2.365854,-12.43838 -2.640445,-18.45843 -0.274592,-6.02005 0.592737,-10.14908 1.596023,-12.86728 1.003287,-2.7182 2.142439,-4.02528 2.165235,-6.51208 0.0228,-2.48681 -1.070743,-6.15319 -3.153015,-10.48023 -2.082272,-4.32703 -5.153141,-9.31447 -7.056148,-11.74637 -1.903007,-2.43191 -2.638064,-2.3082 -4.791553,-1.59317 -2.153488,0.71503 -5.725247,2.02132 -8.08255,2.89106 -2.357303,0.86974 -3.500035,1.3029 -5.019265,1.59682 -1.51923,0.29392 -3.414864,0.44859 -6.51422,0.56659 -3.099357,0.11799 -7.402227,0.19931 -9.872593,0.54106 -2.470366,0.34176 -3.108118,0.94394 -3.605142,1.44786 -0.497023,0.50392 -0.853301,0.90957 -1.363497,1.1558 -0.510196,0.24622 -1.174283,0.33303 -1.967925,0.68326 -0.793642,0.35023 -1.716791,0.96387 -2.53089,1.46041 -0.814099,0.49653 -1.519101,0.87593 -2.028347,0.93616 -0.509246,0.0602 -0.822718,-0.19871 -0.843017,-0.57826 -0.0203,-0.37956 0.252569,-0.87971 0.717818,-1.40309 0.46525,-0.52338 1.122849,-1.06996 1.470955,-1.38596 0.348106,-0.316 0.386699,-0.4014 0.296666,-0.52176 -0.09003,-0.12036 -0.30869,-0.27569 -0.927739,-0.33655 -0.619049,-0.0609 -1.63845,-0.0273 -2.773618,-0.0235 -1.135169,0.004 -2.386031,-0.0223 -3.204159,-0.14725 -0.818128,-0.12495 -1.203484,-0.34877 -1.622004,-0.60992 -0.418519,-0.26114 -0.870175,-0.5596 -1.161995,-0.94401 -0.291819,-0.3844 -0.423793,-0.85474 -0.489779,-1.08991 -0.06599,-0.23517 -0.06626,-0.23517 0.790696,-0.3436 z"
       id="path4" />
    <path
       style="fill:#000000;fill-opacity:1;stroke-width:0.517;stroke-dasharray:none"
       d="m 98.907042,-722.88048 c -0.388773,-0.2697 -0.854697,-0.46724 -1.391639,-0.97318 -0.536942,-0.50593 -1.144873,-1.32021 -1.962015,-2.26942 -0.817142,-0.94921 -1.843443,-2.03329 -2.415045,-2.72437 -0.571601,-0.69108 -0.68848,-0.98913 -0.684622,-1.19784 0.0039,-0.20871 0.128455,-0.32807 0.286993,-0.40155 0.158539,-0.0735 0.351012,-0.10108 0.534598,-0.0565 0.183586,0.0445 0.358274,0.16121 0.778798,0.51178 0.420524,0.35058 1.086856,0.93504 1.534293,1.22577 0.447436,0.29073 0.675962,0.28773 0.811902,0.17411 0.135939,-0.11363 0.179291,-0.33786 0.148141,-0.55032 -0.03115,-0.21245 -0.136791,-0.4131 -0.450581,-0.85633 -0.31379,-0.44322 -0.835697,-1.12897 -1.151752,-1.70891 -0.316054,-0.57994 -0.426238,-1.05403 -0.64098,-1.78804 -0.214742,-0.734 -0.534028,-1.72787 -0.675269,-2.46922 -0.141241,-0.74135 -0.104433,-1.23014 0.03313,-1.49857 0.137561,-0.26843 0.375883,-0.31647 0.635774,-0.20773 0.25989,0.10875 0.541343,0.37428 0.78174,0.74518 0.240396,0.37089 0.439722,0.84713 0.881996,1.60566 0.442274,0.75853 1.127463,1.7993 1.658501,2.48054 0.531038,0.68124 0.907903,1.00292 1.195209,1.42944 0.287306,0.42652 0.485041,0.95785 0.95174,1.98293 0.466699,1.02508 1.202329,2.54385 1.619949,3.58472 0.41761,1.04087 0.51718,1.60378 2.0478,3.17521 1.53062,1.57142 4.49218,4.15126 6.30707,5.66178 1.81488,1.51052 2.48301,1.95165 3.0547,2.60132 0.57168,0.64967 1.04688,1.50782 1.84731,2.56012 0.80042,1.05231 1.92602,2.29869 2.98936,3.27206 1.06334,0.97337 2.06436,1.67366 3.09411,2.28498 1.02975,0.61131 2.08818,1.13362 2.99498,1.51963 0.9068,0.38601 1.66192,0.63571 2.50411,1.12892 0.84218,0.49321 1.77137,1.22988 2.44718,2.01995 0.67581,0.79008 1.09819,1.63352 1.48422,2.1479 0.38604,0.51438 0.7357,0.69968 1.04064,0.73394 0.30495,0.0343 0.56517,-0.0825 0.83784,-0.30104 0.27267,-0.21852 0.55778,-0.53877 0.71862,-0.99586 0.16084,-0.45708 0.19741,-1.05098 0.15753,-1.66499 -0.0399,-0.61401 -0.15617,-1.2481 -0.24573,-1.98724 -0.0896,-0.73915 -0.15238,-1.5833 -0.1081,-2.34901 0.0443,-0.76571 0.19565,-1.45294 0.46115,-2.0667 0.26551,-0.61375 0.64512,-1.15398 0.94836,-1.59848 0.30324,-0.44449 0.53008,-0.79322 0.67581,-1.32828 0.14573,-0.53506 0.21034,-1.25642 0.35796,-1.76268 0.14762,-0.50626 0.37822,-0.7974 0.94016,-1.27916 0.56195,-0.48176 1.45518,-1.15412 2.74793,-1.41508 1.29274,-0.26095 2.98491,-0.1105 4.24058,0.21903 1.25567,0.32954 2.07477,0.83814 2.87723,1.54017 0.80247,0.70202 1.58824,1.59742 2.19622,2.60812 0.60798,1.01071 1.03813,2.13666 1.3029,3.26975 0.26477,1.13309 0.36414,2.27326 0.35038,3.17725 -0.0138,0.90398 -0.14067,1.57174 -0.0617,2.08126 0.0789,0.50952 0.36365,0.86076 0.47091,1.38655 0.10726,0.52579 0.0371,1.22607 -0.16621,1.86434 -0.20325,0.63828 -0.53953,1.2145 -0.88532,1.59623 -0.34578,0.38174 -0.70104,0.56896 -0.88876,0.99071 -0.18772,0.42176 -0.20788,1.07803 -0.14162,2.08064 0.0663,1.00261 0.21894,2.3515 0.67584,3.32271 0.4569,0.9712 1.21797,1.56467 2.43661,2.31404 1.21864,0.74936 2.89477,1.65458 4.87222,2.47502 1.97745,0.82044 4.25609,1.55605 6.61666,2.12169 2.36057,0.56564 4.80292,0.96126 7.20754,1.37727 2.40463,0.416 4.77138,0.85234 7.20186,1.17156 2.43047,0.31922 4.92452,0.5213 7.71066,1.02311 2.78613,0.50181 5.86418,1.30331 8.22268,1.7068 2.35851,0.4035 3.99734,0.40896 5.22067,0.23075 1.22332,-0.17822 2.03108,-0.54011 2.65367,-0.98627 0.62258,-0.44616 1.05997,-0.97657 1.48427,-1.55728 0.4243,-0.5807 0.8355,-1.21166 1.08576,-1.71554 0.25026,-0.50389 0.33957,-0.88067 0.51755,-1.19352 0.17797,-0.31285 0.44459,-0.56176 0.72277,-0.60634 0.27819,-0.0446 0.56791,0.11518 0.74737,0.35913 0.17946,0.24395 0.24864,0.57207 0.38518,0.69949 0.13653,0.12742 0.34041,0.0541 0.57196,-0.0734 0.23155,-0.12756 0.49076,-0.30939 0.80964,-0.58198 0.31889,-0.27258 0.69743,-0.63589 1.16465,-0.85771 0.46722,-0.22181 1.02309,-0.30211 1.48545,-0.30566 0.46237,-0.004 0.83119,0.0697 1.16463,0.2416 0.33344,0.17194 0.63148,0.4426 0.82634,0.72322 0.19486,0.28061 0.28654,0.57116 0.26835,0.80573 -0.0182,0.23457 -0.14625,0.41314 -0.2531,0.6334 -0.10685,0.22026 -0.1925,0.48223 -0.29523,0.90353 -0.10274,0.42129 -0.22256,1.0019 -0.578,1.52848 -0.35543,0.52659 -0.94645,0.99912 -1.91055,1.86429 -0.96409,0.86517 -2.30121,2.12292 -3.72172,2.85172 -1.4205,0.7288 -2.9243,0.92862 -4.25823,1.07993 -1.33394,0.15131 -2.49794,0.25411 -4.6157,0.41711 -2.11777,0.163 -5.18915,0.3862 -8.30263,0.62789 -3.11348,0.2417 -6.26886,0.50188 -8.39329,0.64112 -2.12443,0.13924 -3.21781,0.15754 -4.32415,0.35835 -1.10635,0.2008 -2.22559,0.58409 -4.4674,0.79744 -2.24181,0.21334 -5.60602,0.25672 -8.22341,0.16705 -2.61739,-0.0897 -4.48781,-0.31237 -5.56714,-0.19565 -1.07934,0.11672 -1.36753,0.57285 -1.66775,1.20002 -0.30021,0.62718 -0.61244,1.42536 -1.02905,2.48643 -0.41661,1.06106 -0.93757,2.38494 -2.20311,5.27325 -1.26554,2.88831 -3.27556,7.34084 -4.43154,10.24955 -1.15597,2.90872 -1.45785,4.27348 -1.5042,5.68633 -0.0464,1.41284 0.16282,2.87369 0.47913,4.24125 0.31632,1.36755 0.73974,2.64172 1.08773,4.50737 0.34798,1.86565 0.6205,4.32266 0.32858,7.04946 -0.29193,2.7268 -1.14828,5.72323 -2.02878,9.1148 -0.88049,3.39157 -1.78507,7.17807 -2.71994,11.29028 -0.93486,4.11221 -1.89995,8.54988 -2.36767,11.49322 -0.46772,2.94333 -0.43806,4.39218 -0.3188,6.06012 0.11926,1.66795 0.32811,3.55488 0.46553,6.04067 0.13742,2.48578 0.2034,5.57025 -0.0108,8.11042 -0.21424,2.54016 -0.7087,4.53588 -1.55453,6.35478 -0.84584,1.8189 -2.043,3.46087 -3.18414,5.30653 -1.14114,1.84566 -2.22619,3.8949 -2.94555,5.43611 -0.71937,1.54121 -1.073,2.57429 -1.33923,3.57053 -0.26623,0.99624 -0.44504,1.95556 -0.48591,2.85248 -0.0409,0.89691 0.0562,1.73137 -0.043,2.41374 -0.0991,0.68237 -0.39449,1.21262 -0.88299,1.68828 -0.48849,0.47567 -1.17011,0.89673 -2.55636,1.5281 -1.38625,0.63137 -3.47704,1.47302 -5.02686,1.98329 -1.54981,0.51027 -2.55857,0.68914 -3.29665,0.63753 -0.73807,-0.0516 -1.20543,-0.3337 -1.71699,-0.514 -0.51156,-0.1803 -1.06728,-0.2588 -1.42895,-0.42371 -0.36166,-0.16491 -0.52925,-0.41621 -0.67407,-0.63234 -0.14482,-0.21614 -0.26686,-0.39709 -0.0747,-0.72141 0.19216,-0.32432 0.69849,-0.792 1.24544,-1.23209 0.54695,-0.4401 1.13449,-0.85259 1.84732,-1.34589 0.71283,-0.4933 1.55091,-1.06737 1.99919,-1.47892 0.44828,-0.41155 0.50676,-0.66054 0.40504,-0.86335 -0.10171,-0.20282 -0.3636,-0.35944 -0.70166,-0.40142 -0.33807,-0.042 -0.75227,0.0307 -1.17496,0.28225 -0.42269,0.25158 -0.85384,0.68208 -1.38237,1.04224 -0.52853,0.36015 -1.1544,0.64995 -1.83277,0.99766 -0.67837,0.34772 -1.40919,0.75333 -2.11862,1.06617 -0.70942,0.31284 -1.39741,0.53289 -1.87682,0.55187 -0.47941,0.019 -0.75022,-0.16313 -1.07683,-0.34985 -0.3266,-0.18672 -0.70898,-0.37805 -0.96346,-0.71793 -0.25447,-0.33988 -0.38103,-0.82828 -0.47521,-1.37329 -0.0942,-0.54501 -0.15596,-1.14661 -0.16738,-1.56819 -0.0114,-0.42158 0.0275,-0.66314 0.15575,-0.81473 0.12825,-0.15158 0.34579,-0.2132 0.68697,-0.20592 0.34117,0.007 0.80595,0.0835 1.6522,-0.23067 0.84624,-0.31413 2.0739,-1.01853 3.42581,-1.98798 1.35191,-0.96945 2.82799,-2.20389 3.73214,-3.37986 0.90415,-1.17597 1.23632,-2.2934 1.82857,-7.46648 0.59226,-5.17309 1.44455,-14.40144 1.83081,-19.28808 0.38625,-4.88663 0.30646,-5.43133 0.22977,-6.41873 -0.0767,-0.9874 -0.15026,-2.41743 -0.0899,-3.33714 0.0604,-0.91971 0.25471,-1.32905 -0.30454,-3.20855 -0.55925,-1.8795 -1.87203,-5.22902 -2.90441,-8.22077 -1.03238,-2.99175 -1.78432,-5.62556 -2.21311,-8.0737 -0.42879,-2.44815 -0.5344,-4.71049 -0.36548,-8.77676 0.16891,-4.06627 0.61233,-9.9362 1.35894,-14.61088 0.7466,-4.67469 1.79635,-8.15388 2.9481,-10.92895 1.15175,-2.77508 2.40545,-4.84588 3.12004,-6.48447 0.71459,-1.63858 0.89005,-2.84487 0.779,-4.30687 -0.11105,-1.46201 -0.5086,-3.17965 -0.79265,-5.04571 -0.28404,-1.86606 -0.45456,-3.88043 -0.62399,-5.85693 -0.16944,-1.97649 -0.33777,-3.91498 -0.15956,-5.55995 0.17821,-1.64498 0.70295,-2.99635 1.11901,-4.0583 0.41607,-1.06196 0.72345,-1.83445 0.77904,-2.55974 0.0556,-0.72529 -0.1406,-1.40333 -0.4303,-1.84002 -0.28969,-0.4367 -0.67286,-0.63203 -2.05039,-1.9622 -1.37753,-1.33018 -3.74931,-3.7951 -5.32001,-5.35352 -1.57069,-1.55842 -2.34022,-2.21027 -2.743,-2.79945 -0.40279,-0.58919 -0.4388,-1.11568 -2.06902,-3.31503 -1.63021,-2.19935 -4.85449,-6.0714 -7.13698,-9.24088 -2.28249,-3.16948 -3.62309,-5.63621 -4.50733,-7.3833 -0.88425,-1.74709 -1.31212,-2.77446 -1.681875,-3.45908 -0.369753,-0.68463 -0.68137,-1.02648 -1.070143,-1.29618 z"
       id="path5" />
  </g>
</svg>
